<mxfile host="app.diagrams.net" modified="2024-03-11T10:09:27.101Z" agent="Mozilla/5.0 (Windows NT 10.0; Win64; x64) AppleWebKit/537.36 (KHTML, like Gecko) Chrome/122.0.0.0 Safari/537.36" etag="Iwhce0p4ZITTFKe51Gme" version="24.0.4" type="device">
  <diagram id="C5RBs43oDa-KdzZeNtuy" name="Page-1">
    <mxGraphModel dx="1687" dy="878" grid="0" gridSize="10" guides="1" tooltips="1" connect="1" arrows="1" fold="1" page="1" pageScale="1" pageWidth="827" pageHeight="1169" math="0" shadow="0">
      <root>
        <mxCell id="WIyWlLk6GJQsqaUBKTNV-0" />
        <mxCell id="WIyWlLk6GJQsqaUBKTNV-1" parent="WIyWlLk6GJQsqaUBKTNV-0" />
        <mxCell id="WeFQbFHnC3xoli6v-mbd-88" value="начало" style="rounded=1;whiteSpace=wrap;html=1;fontSize=18;glass=0;strokeWidth=1;shadow=0;" vertex="1" parent="WIyWlLk6GJQsqaUBKTNV-1">
          <mxGeometry x="116" y="165.9411764705883" width="120" height="40" as="geometry" />
        </mxCell>
        <mxCell id="WeFQbFHnC3xoli6v-mbd-89" value="Конец" style="rounded=1;whiteSpace=wrap;html=1;fontSize=18;glass=0;strokeWidth=1;shadow=0;" vertex="1" parent="WIyWlLk6GJQsqaUBKTNV-1">
          <mxGeometry x="119" y="603.9411764705883" width="120" height="40" as="geometry" />
        </mxCell>
        <mxCell id="WeFQbFHnC3xoli6v-mbd-90" value="" style="endArrow=none;html=1;rounded=0;exitX=0.5;exitY=1;exitDx=0;exitDy=0;entryX=0.5;entryY=0;entryDx=0;entryDy=0;" edge="1" parent="WIyWlLk6GJQsqaUBKTNV-1" source="WeFQbFHnC3xoli6v-mbd-88" target="WeFQbFHnC3xoli6v-mbd-91">
          <mxGeometry width="50" height="50" relative="1" as="geometry">
            <mxPoint x="342" y="440.9411764705883" as="sourcePoint" />
            <mxPoint x="174" y="215.9411764705883" as="targetPoint" />
          </mxGeometry>
        </mxCell>
        <mxCell id="WeFQbFHnC3xoli6v-mbd-91" value="Ввод: x,a,z,b,c" style="shape=parallelogram;perimeter=parallelogramPerimeter;whiteSpace=wrap;html=1;fixedSize=1;fontSize=15;" vertex="1" parent="WIyWlLk6GJQsqaUBKTNV-1">
          <mxGeometry x="104" y="245.9411764705883" width="144" height="60" as="geometry" />
        </mxCell>
        <mxCell id="WeFQbFHnC3xoli6v-mbd-92" value="" style="endArrow=none;html=1;rounded=0;entryX=0.5;entryY=1;entryDx=0;entryDy=0;exitX=0.5;exitY=0;exitDx=0;exitDy=0;" edge="1" parent="WIyWlLk6GJQsqaUBKTNV-1" target="WeFQbFHnC3xoli6v-mbd-91">
          <mxGeometry width="50" height="50" relative="1" as="geometry">
            <mxPoint x="176" y="333.9411764705883" as="sourcePoint" />
            <mxPoint x="392" y="390.9411764705883" as="targetPoint" />
          </mxGeometry>
        </mxCell>
        <mxCell id="WeFQbFHnC3xoli6v-mbd-93" value="result = func(x,a,z,b,c)" style="rounded=0;whiteSpace=wrap;html=1;fontSize=16;" vertex="1" parent="WIyWlLk6GJQsqaUBKTNV-1">
          <mxGeometry x="81" y="333.9411764705883" width="196" height="60" as="geometry" />
        </mxCell>
        <mxCell id="WeFQbFHnC3xoli6v-mbd-94" value="" style="endArrow=none;html=1;rounded=0;exitX=0.5;exitY=0;exitDx=0;exitDy=0;entryX=0.5;entryY=1;entryDx=0;entryDy=0;" edge="1" parent="WIyWlLk6GJQsqaUBKTNV-1" source="WeFQbFHnC3xoli6v-mbd-98" target="WeFQbFHnC3xoli6v-mbd-93">
          <mxGeometry width="50" height="50" relative="1" as="geometry">
            <mxPoint x="179" y="468.9411764705883" as="sourcePoint" />
            <mxPoint x="184" y="478.9411764705883" as="targetPoint" />
          </mxGeometry>
        </mxCell>
        <mxCell id="WeFQbFHnC3xoli6v-mbd-95" value="Вывод&lt;br style=&quot;font-size: 15px;&quot;&gt;result&lt;br style=&quot;font-size: 15px;&quot;&gt;в файл" style="shape=parallelogram;perimeter=parallelogramPerimeter;whiteSpace=wrap;html=1;fixedSize=1;fontSize=15;" vertex="1" parent="WIyWlLk6GJQsqaUBKTNV-1">
          <mxGeometry x="111" y="514.9411764705883" width="136" height="60" as="geometry" />
        </mxCell>
        <mxCell id="WeFQbFHnC3xoli6v-mbd-96" value="" style="endArrow=none;html=1;rounded=0;exitX=0.5;exitY=1;exitDx=0;exitDy=0;entryX=0.5;entryY=0;entryDx=0;entryDy=0;" edge="1" parent="WIyWlLk6GJQsqaUBKTNV-1" source="WeFQbFHnC3xoli6v-mbd-98" target="WeFQbFHnC3xoli6v-mbd-95">
          <mxGeometry width="50" height="50" relative="1" as="geometry">
            <mxPoint x="179" y="528.9411764705883" as="sourcePoint" />
            <mxPoint x="184" y="478.9411764705883" as="targetPoint" />
          </mxGeometry>
        </mxCell>
        <mxCell id="WeFQbFHnC3xoli6v-mbd-97" value="" style="endArrow=none;html=1;rounded=0;exitX=0.5;exitY=1;exitDx=0;exitDy=0;entryX=0.5;entryY=0;entryDx=0;entryDy=0;" edge="1" parent="WIyWlLk6GJQsqaUBKTNV-1" source="WeFQbFHnC3xoli6v-mbd-95" target="WeFQbFHnC3xoli6v-mbd-89">
          <mxGeometry width="50" height="50" relative="1" as="geometry">
            <mxPoint x="134" y="528.9411764705883" as="sourcePoint" />
            <mxPoint x="47" y="672.9411764705883" as="targetPoint" />
          </mxGeometry>
        </mxCell>
        <mxCell id="WeFQbFHnC3xoli6v-mbd-98" value="Вывод: result" style="shape=parallelogram;perimeter=parallelogramPerimeter;whiteSpace=wrap;html=1;fixedSize=1;fontSize=15;" vertex="1" parent="WIyWlLk6GJQsqaUBKTNV-1">
          <mxGeometry x="99" y="425.9411764705883" width="160" height="60" as="geometry" />
        </mxCell>
      </root>
    </mxGraphModel>
  </diagram>
</mxfile>
